{"title":"The Education of Little Tree 1997 DVDRip XviD AC3 titler","uid":8953298,"size":1552966061,"categoryP":"video","categoryS":"movies","magnet":"?xt=urn:btih:611d1c2e3d634d0c08269c9ec74f5224b708d9c1&amp;dn=The+Education+of+Little+Tree+1997+DVDRip+XviD+AC3+titler&amp;tr=udp%3A%2F%2Ftracker.openbittorrent.com%3A80&amp;tr=udp%3A%2F%2Fopen.demonii.com%3A1337&amp;tr=udp%3A%2F%2Ftracker.coppersurfer.tk%3A6969&amp;tr=udp%3A%2F%2Fexodus.desync.com%3A6969","seeders":2,"leechers":2,"uploader":"movieZ.freak","files":4,"time":1379942606,"description":" &lt;a href=&quot;http://www.imdb.com/title/tt0119052/&quot; rel=&quot;nofollow&quot; target=&quot;_NEW&quot;&gt;http://www.imdb.com/title/tt0119052/&lt;/a&gt;\n\n &lt;a href=&quot;\nhttp://en.wikipedia.org/wiki/The_Education_of_Little_Tree_%28film%29&quot; rel=&quot;nofollow&quot; target=&quot;_NEW&quot;&gt;\nhttp://en.wikipedia.org/wiki/The_Education_of_Little_Tree_%28film%29&lt;/a&gt;\n\n\n\n- SAMPLE: Yes\n\n- SUBTITLE: English\n\n- LANGUAGE: English\n\n\n\nDURATION: 1h 55mn\n\n\nSCREENSHOTS:\n------------------- &lt;a href=&quot;\nhttp://someimage.com/9rHn&quot; rel=&quot;nofollow&quot; target=&quot;_NEW&quot;&gt;\nhttp://someimage.com/9rHn&lt;/a&gt;\n\n\n\nNOTE:\n---------\nRARE!!! / VERY RARE!!! / EXTREMELY RARE!!! :)\n\n\n\nDIRECTOR: Richard Friedenberg\n\n\n\nMUSIC: Mark Isham\n\n\nCAST: James Cromwell, Tantoo Cardinal, Joseph Ashton, Mika Boorem, Graham Greene, Christopher Heyerdahl\n\n\nPLOT:\n---------\nLittle Tree is an 8-year-old Cherokee boy, who, during the time of the depression, loses his parents and starts to live with his Indian grandma and grandpa and learn the wisdom of the Cherokee way of life. Richard Friedenberg scripted and made his directorial debut with this adaptation of Forrest Carter's 1992 award-winning coming-of-age novel detailing the Depression-era boyhood of an orphaned Cherokee, eight-year-old Little Tree (Joseph Ashton). Raised and tutored by his grandparents (Tantoo Cardinal, James Cromwell) in the Smokey Mountains of the 1930s, Little Tree\nencounters difficulties after authorities force him to attend the Notched Gap Indian School. Friedenberg later received an Oscar nomination for his 'A River Runs Through It' screenplay.\n\n\nGeneral\n-----------\nFormat : AVI\nFormat/Info : Audio Video Interleave\nFile size : 1.41 GiB\nDuration : 1h 55mn\nOverall bit rate : 1749 Kbps\nWriting library : VirtualDub build 32842\n\n\nVideo\n---------\nFormat : MPEG-4 Visual\nFormat profile : Advanced Simple@L5\nFormat settings, BVOP : 1\nFormat settings, QPel : No\nFormat settings, GMC : No warppoints\nFormat settings, Matrix : Default (MPEG)\nCodec ID : XVID\nCodec ID/Hint : XviD\nDuration : 1h 55mn\nBit rate : 1612 Kbps\nWidth : 608 pixels\nHeight : 336 pixels\nDisplay aspect ratio : 16:9\nFrame rate : 23.976 fps\nColor space : YUV\nChroma subsampling : 4:2:0\nBit depth : 8 bits\nScan type : Progressive\nCompression mode : Lossy\nBits/(Pixel*Frame) : 0.329\nStream size : 1.30 GiB (92%)\nWriting library : XviD 1.2.0\n\n\nAudio\n---------\nFormat : AC-3\nFormat/Info : Audio Coding 3\nMode extension : CM (complete main)\nFormat settings, Endianness : Big\nCodec ID : 2000\nDuration : 1h 55mn\nBit rate mode : Constant\nBit rate : 128 Kbps\nChannel(s) : 2 channels\nChannel positions : Front: L R\nSampling rate : 48.0 KHz\nBit depth : 16 bits\nCompression mode : Lossy\nStream size : 106 MiB (7%)\nAlignment : Aligned on interleaves\nInterleave, duration : 42 ms (1.00 video frame)\nInterleave, preload duration : 512 ms\n\n\n\n\n\n","torrent":{"xt":"urn:btih:611d1c2e3d634d0c08269c9ec74f5224b708d9c1","amp;dn":"The+Education+of+Little+Tree+1997+DVDRip+XviD+AC3+titler","amp;tr":["udp%3A%2F%2Ftracker.openbittorrent.com%3A80","udp%3A%2F%2Fopen.demonii.com%3A1337","udp%3A%2F%2Ftracker.coppersurfer.tk%3A6969","udp%3A%2F%2Fexodus.desync.com%3A6969"],"infoHash":"611d1c2e3d634d0c08269c9ec74f5224b708d9c1","infoHashBuffer":{"type":"Buffer","data":[97,29,28,46,61,99,77,12,8,38,156,158,199,79,82,36,183,8,217,193]},"announce":[],"urlList":[]}}